<mxfile host="app.diagrams.net" modified="2020-10-30T14:50:58.033Z" agent="5.0 (Windows NT 10.0; Win64; x64) AppleWebKit/537.36 (KHTML, like Gecko) Chrome/86.0.4240.111 Safari/537.36 Edg/86.0.622.51" etag="19kua_rFzP_ECM_FrYie" version="13.8.8" type="github">
  <diagram id="C5RBs43oDa-KdzZeNtuy" name="Page-1">
    <mxGraphModel dx="2500" dy="2103" grid="1" gridSize="10" guides="1" tooltips="1" connect="1" arrows="1" fold="1" page="1" pageScale="1" pageWidth="827" pageHeight="1169" math="0" shadow="0">
      <root>
        <mxCell id="WIyWlLk6GJQsqaUBKTNV-0" />
        <mxCell id="WIyWlLk6GJQsqaUBKTNV-1" parent="WIyWlLk6GJQsqaUBKTNV-0" />
        <mxCell id="RgSMHik2Wsmm7Nfgr3Pd-0" value="Hurtownia" style="swimlane;fontStyle=1;align=center;verticalAlign=top;childLayout=stackLayout;horizontal=1;startSize=20;horizontalStack=0;resizeParent=1;resizeParentMax=0;resizeLast=0;collapsible=1;marginBottom=0;" parent="WIyWlLk6GJQsqaUBKTNV-1" vertex="1">
          <mxGeometry x="50" y="-540" width="160" height="74" as="geometry" />
        </mxCell>
        <mxCell id="RgSMHik2Wsmm7Nfgr3Pd-1" value="nazwa:&#xa;adres:&#xa;" style="text;strokeColor=none;fillColor=none;align=left;verticalAlign=top;spacingLeft=4;spacingRight=4;overflow=hidden;rotatable=0;points=[[0,0.5],[1,0.5]];portConstraint=eastwest;" parent="RgSMHik2Wsmm7Nfgr3Pd-0" vertex="1">
          <mxGeometry y="20" width="160" height="44" as="geometry" />
        </mxCell>
        <mxCell id="RgSMHik2Wsmm7Nfgr3Pd-2" value="" style="line;strokeWidth=1;fillColor=none;align=left;verticalAlign=middle;spacingTop=-1;spacingLeft=3;spacingRight=3;rotatable=0;labelPosition=right;points=[];portConstraint=eastwest;" parent="RgSMHik2Wsmm7Nfgr3Pd-0" vertex="1">
          <mxGeometry y="64" width="160" height="10" as="geometry" />
        </mxCell>
        <mxCell id="RgSMHik2Wsmm7Nfgr3Pd-4" value="Zamówienie " style="swimlane;fontStyle=1;align=center;verticalAlign=top;childLayout=stackLayout;horizontal=1;startSize=26;horizontalStack=0;resizeParent=1;resizeParentMax=0;resizeLast=0;collapsible=1;marginBottom=0;" parent="WIyWlLk6GJQsqaUBKTNV-1" vertex="1">
          <mxGeometry x="390" y="-540" width="160" height="60" as="geometry" />
        </mxCell>
        <mxCell id="RgSMHik2Wsmm7Nfgr3Pd-5" value="dataZłożenia:" style="text;strokeColor=none;fillColor=none;align=left;verticalAlign=top;spacingLeft=4;spacingRight=4;overflow=hidden;rotatable=0;points=[[0,0.5],[1,0.5]];portConstraint=eastwest;" parent="RgSMHik2Wsmm7Nfgr3Pd-4" vertex="1">
          <mxGeometry y="26" width="160" height="26" as="geometry" />
        </mxCell>
        <mxCell id="RgSMHik2Wsmm7Nfgr3Pd-6" value="" style="line;strokeWidth=1;fillColor=none;align=left;verticalAlign=middle;spacingTop=-1;spacingLeft=3;spacingRight=3;rotatable=0;labelPosition=right;points=[];portConstraint=eastwest;" parent="RgSMHik2Wsmm7Nfgr3Pd-4" vertex="1">
          <mxGeometry y="52" width="160" height="8" as="geometry" />
        </mxCell>
        <mxCell id="RgSMHik2Wsmm7Nfgr3Pd-16" value="Gotówka" style="swimlane;fontStyle=1;align=center;verticalAlign=top;childLayout=stackLayout;horizontal=1;startSize=26;horizontalStack=0;resizeParent=1;resizeParentMax=0;resizeLast=0;collapsible=1;marginBottom=0;" parent="WIyWlLk6GJQsqaUBKTNV-1" vertex="1">
          <mxGeometry x="210" y="20" width="160" height="60" as="geometry" />
        </mxCell>
        <mxCell id="RgSMHik2Wsmm7Nfgr3Pd-17" value="kwotaPrzekazana:&#xa;" style="text;strokeColor=none;fillColor=none;align=left;verticalAlign=top;spacingLeft=4;spacingRight=4;overflow=hidden;rotatable=0;points=[[0,0.5],[1,0.5]];portConstraint=eastwest;" parent="RgSMHik2Wsmm7Nfgr3Pd-16" vertex="1">
          <mxGeometry y="26" width="160" height="26" as="geometry" />
        </mxCell>
        <mxCell id="RgSMHik2Wsmm7Nfgr3Pd-18" value="" style="line;strokeWidth=1;fillColor=none;align=left;verticalAlign=middle;spacingTop=-1;spacingLeft=3;spacingRight=3;rotatable=0;labelPosition=right;points=[];portConstraint=eastwest;" parent="RgSMHik2Wsmm7Nfgr3Pd-16" vertex="1">
          <mxGeometry y="52" width="160" height="8" as="geometry" />
        </mxCell>
        <mxCell id="RgSMHik2Wsmm7Nfgr3Pd-20" value="KartaPłatnicza" style="swimlane;fontStyle=1;align=center;verticalAlign=top;childLayout=stackLayout;horizontal=1;startSize=26;horizontalStack=0;resizeParent=1;resizeParentMax=0;resizeLast=0;collapsible=1;marginBottom=0;" parent="WIyWlLk6GJQsqaUBKTNV-1" vertex="1">
          <mxGeometry x="380" y="20" width="160" height="114" as="geometry" />
        </mxCell>
        <mxCell id="RgSMHik2Wsmm7Nfgr3Pd-21" value="typ =kredytowa&#xa;numer:&#xa;dataWażności:  " style="text;strokeColor=none;fillColor=none;align=left;verticalAlign=top;spacingLeft=4;spacingRight=4;overflow=hidden;rotatable=0;points=[[0,0.5],[1,0.5]];portConstraint=eastwest;" parent="RgSMHik2Wsmm7Nfgr3Pd-20" vertex="1">
          <mxGeometry y="26" width="160" height="54" as="geometry" />
        </mxCell>
        <mxCell id="RgSMHik2Wsmm7Nfgr3Pd-22" value="" style="line;strokeWidth=1;fillColor=none;align=left;verticalAlign=middle;spacingTop=-1;spacingLeft=3;spacingRight=3;rotatable=0;labelPosition=right;points=[];portConstraint=eastwest;" parent="RgSMHik2Wsmm7Nfgr3Pd-20" vertex="1">
          <mxGeometry y="80" width="160" height="8" as="geometry" />
        </mxCell>
        <mxCell id="RgSMHik2Wsmm7Nfgr3Pd-23" value="obiąż()" style="text;strokeColor=none;fillColor=none;align=left;verticalAlign=top;spacingLeft=4;spacingRight=4;overflow=hidden;rotatable=0;points=[[0,0.5],[1,0.5]];portConstraint=eastwest;" parent="RgSMHik2Wsmm7Nfgr3Pd-20" vertex="1">
          <mxGeometry y="88" width="160" height="26" as="geometry" />
        </mxCell>
        <mxCell id="RgSMHik2Wsmm7Nfgr3Pd-24" value="Przelew" style="swimlane;fontStyle=1;align=center;verticalAlign=top;childLayout=stackLayout;horizontal=1;startSize=30;horizontalStack=0;resizeParent=1;resizeParentMax=0;resizeLast=0;collapsible=1;marginBottom=0;" parent="WIyWlLk6GJQsqaUBKTNV-1" vertex="1">
          <mxGeometry x="560" y="20" width="160" height="78" as="geometry" />
        </mxCell>
        <mxCell id="RgSMHik2Wsmm7Nfgr3Pd-25" value="nazwaBanku:&#xa;nrKonta:&#xa;" style="text;strokeColor=none;fillColor=none;align=left;verticalAlign=top;spacingLeft=4;spacingRight=4;overflow=hidden;rotatable=0;points=[[0,0.5],[1,0.5]];portConstraint=eastwest;" parent="RgSMHik2Wsmm7Nfgr3Pd-24" vertex="1">
          <mxGeometry y="30" width="160" height="40" as="geometry" />
        </mxCell>
        <mxCell id="RgSMHik2Wsmm7Nfgr3Pd-26" value="" style="line;strokeWidth=1;fillColor=none;align=left;verticalAlign=middle;spacingTop=-1;spacingLeft=3;spacingRight=3;rotatable=0;labelPosition=right;points=[];portConstraint=eastwest;" parent="RgSMHik2Wsmm7Nfgr3Pd-24" vertex="1">
          <mxGeometry y="70" width="160" height="8" as="geometry" />
        </mxCell>
        <mxCell id="RgSMHik2Wsmm7Nfgr3Pd-28" value="Wpływ" style="swimlane;fontStyle=1;align=center;verticalAlign=top;childLayout=stackLayout;horizontal=1;startSize=26;horizontalStack=0;resizeParent=1;resizeParentMax=0;resizeLast=0;collapsible=1;marginBottom=0;" parent="WIyWlLk6GJQsqaUBKTNV-1" vertex="1">
          <mxGeometry x="667" y="-150" width="160" height="60" as="geometry" />
        </mxCell>
        <mxCell id="RgSMHik2Wsmm7Nfgr3Pd-30" value="" style="line;strokeWidth=1;fillColor=none;align=left;verticalAlign=middle;spacingTop=-1;spacingLeft=3;spacingRight=3;rotatable=0;labelPosition=right;points=[];portConstraint=eastwest;" parent="RgSMHik2Wsmm7Nfgr3Pd-28" vertex="1">
          <mxGeometry y="26" width="160" height="8" as="geometry" />
        </mxCell>
        <mxCell id="RgSMHik2Wsmm7Nfgr3Pd-31" value="zaksięguj()" style="text;strokeColor=none;fillColor=none;align=left;verticalAlign=top;spacingLeft=4;spacingRight=4;overflow=hidden;rotatable=0;points=[[0,0.5],[1,0.5]];portConstraint=eastwest;" parent="RgSMHik2Wsmm7Nfgr3Pd-28" vertex="1">
          <mxGeometry y="34" width="160" height="26" as="geometry" />
        </mxCell>
        <mxCell id="RgSMHik2Wsmm7Nfgr3Pd-32" value="Płatność" style="swimlane;fontStyle=1;align=center;verticalAlign=top;childLayout=stackLayout;horizontal=1;startSize=26;horizontalStack=0;resizeParent=1;resizeParentMax=0;resizeLast=0;collapsible=1;marginBottom=0;" parent="WIyWlLk6GJQsqaUBKTNV-1" vertex="1">
          <mxGeometry x="360" y="-260" width="160" height="60" as="geometry" />
        </mxCell>
        <mxCell id="RgSMHik2Wsmm7Nfgr3Pd-33" value="suma:" style="text;strokeColor=none;fillColor=none;align=left;verticalAlign=top;spacingLeft=4;spacingRight=4;overflow=hidden;rotatable=0;points=[[0,0.5],[1,0.5]];portConstraint=eastwest;" parent="RgSMHik2Wsmm7Nfgr3Pd-32" vertex="1">
          <mxGeometry y="26" width="160" height="26" as="geometry" />
        </mxCell>
        <mxCell id="RgSMHik2Wsmm7Nfgr3Pd-34" value="" style="line;strokeWidth=1;fillColor=none;align=left;verticalAlign=middle;spacingTop=-1;spacingLeft=3;spacingRight=3;rotatable=0;labelPosition=right;points=[];portConstraint=eastwest;" parent="RgSMHik2Wsmm7Nfgr3Pd-32" vertex="1">
          <mxGeometry y="52" width="160" height="8" as="geometry" />
        </mxCell>
        <mxCell id="RgSMHik2Wsmm7Nfgr3Pd-36" value="Należność" style="swimlane;fontStyle=1;align=center;verticalAlign=top;childLayout=stackLayout;horizontal=1;startSize=26;horizontalStack=0;resizeParent=1;resizeParentMax=0;resizeLast=0;collapsible=1;marginBottom=0;" parent="WIyWlLk6GJQsqaUBKTNV-1" vertex="1">
          <mxGeometry x="667" y="-286" width="160" height="60" as="geometry" />
        </mxCell>
        <mxCell id="RgSMHik2Wsmm7Nfgr3Pd-37" value="terminPłatności:" style="text;strokeColor=none;fillColor=none;align=left;verticalAlign=top;spacingLeft=4;spacingRight=4;overflow=hidden;rotatable=0;points=[[0,0.5],[1,0.5]];portConstraint=eastwest;" parent="RgSMHik2Wsmm7Nfgr3Pd-36" vertex="1">
          <mxGeometry y="26" width="160" height="26" as="geometry" />
        </mxCell>
        <mxCell id="RgSMHik2Wsmm7Nfgr3Pd-38" value="" style="line;strokeWidth=1;fillColor=none;align=left;verticalAlign=middle;spacingTop=-1;spacingLeft=3;spacingRight=3;rotatable=0;labelPosition=right;points=[];portConstraint=eastwest;" parent="RgSMHik2Wsmm7Nfgr3Pd-36" vertex="1">
          <mxGeometry y="52" width="160" height="8" as="geometry" />
        </mxCell>
        <mxCell id="RgSMHik2Wsmm7Nfgr3Pd-46" value="" style="endArrow=classic;html=1;exitX=0.5;exitY=0;exitDx=0;exitDy=0;" parent="WIyWlLk6GJQsqaUBKTNV-1" source="RgSMHik2Wsmm7Nfgr3Pd-16" edge="1">
          <mxGeometry width="50" height="50" relative="1" as="geometry">
            <mxPoint x="300" y="-110" as="sourcePoint" />
            <mxPoint x="390" y="-200" as="targetPoint" />
          </mxGeometry>
        </mxCell>
        <mxCell id="RgSMHik2Wsmm7Nfgr3Pd-47" value="" style="endArrow=classic;html=1;exitX=0.406;exitY=-0.009;exitDx=0;exitDy=0;exitPerimeter=0;entryX=0.5;entryY=1;entryDx=0;entryDy=0;" parent="WIyWlLk6GJQsqaUBKTNV-1" source="RgSMHik2Wsmm7Nfgr3Pd-20" target="RgSMHik2Wsmm7Nfgr3Pd-32" edge="1">
          <mxGeometry width="50" height="50" relative="1" as="geometry">
            <mxPoint x="390" y="-190" as="sourcePoint" />
            <mxPoint x="440" y="-170" as="targetPoint" />
            <Array as="points" />
          </mxGeometry>
        </mxCell>
        <mxCell id="RgSMHik2Wsmm7Nfgr3Pd-48" value="" style="endArrow=classic;html=1;exitX=0.356;exitY=-0.038;exitDx=0;exitDy=0;exitPerimeter=0;" parent="WIyWlLk6GJQsqaUBKTNV-1" source="RgSMHik2Wsmm7Nfgr3Pd-24" edge="1">
          <mxGeometry width="50" height="50" relative="1" as="geometry">
            <mxPoint x="480" y="-110" as="sourcePoint" />
            <mxPoint x="490" y="-200" as="targetPoint" />
          </mxGeometry>
        </mxCell>
        <mxCell id="RgSMHik2Wsmm7Nfgr3Pd-49" value="" style="endArrow=classic;html=1;exitX=-0.012;exitY=0.269;exitDx=0;exitDy=0;exitPerimeter=0;entryX=1;entryY=0.25;entryDx=0;entryDy=0;" parent="WIyWlLk6GJQsqaUBKTNV-1" source="RgSMHik2Wsmm7Nfgr3Pd-37" target="RgSMHik2Wsmm7Nfgr3Pd-32" edge="1">
          <mxGeometry width="50" height="50" relative="1" as="geometry">
            <mxPoint x="550" y="-210" as="sourcePoint" />
            <mxPoint x="600" y="-260" as="targetPoint" />
          </mxGeometry>
        </mxCell>
        <mxCell id="RgSMHik2Wsmm7Nfgr3Pd-50" value="" style="endArrow=classic;html=1;exitX=0;exitY=0.25;exitDx=0;exitDy=0;entryX=1;entryY=0.5;entryDx=0;entryDy=0;" parent="WIyWlLk6GJQsqaUBKTNV-1" source="RgSMHik2Wsmm7Nfgr3Pd-28" target="RgSMHik2Wsmm7Nfgr3Pd-33" edge="1">
          <mxGeometry width="50" height="50" relative="1" as="geometry">
            <mxPoint x="550" y="-150" as="sourcePoint" />
            <mxPoint x="600" y="-200" as="targetPoint" />
          </mxGeometry>
        </mxCell>
        <mxCell id="RgSMHik2Wsmm7Nfgr3Pd-51" value="" style="endArrow=classic;html=1;exitX=0.5;exitY=1;exitDx=0;exitDy=0;entryX=0.706;entryY=0;entryDx=0;entryDy=0;entryPerimeter=0;" parent="WIyWlLk6GJQsqaUBKTNV-1" source="RgSMHik2Wsmm7Nfgr3Pd-4" target="RgSMHik2Wsmm7Nfgr3Pd-32" edge="1">
          <mxGeometry width="50" height="50" relative="1" as="geometry">
            <mxPoint x="410" y="-320" as="sourcePoint" />
            <mxPoint x="460" y="-370" as="targetPoint" />
          </mxGeometry>
        </mxCell>
        <mxCell id="RgSMHik2Wsmm7Nfgr3Pd-52" value="" style="endArrow=none;html=1;" parent="WIyWlLk6GJQsqaUBKTNV-1" target="RgSMHik2Wsmm7Nfgr3Pd-5" edge="1">
          <mxGeometry width="50" height="50" relative="1" as="geometry">
            <mxPoint x="212" y="-503" as="sourcePoint" />
            <mxPoint x="315" y="-528" as="targetPoint" />
          </mxGeometry>
        </mxCell>
        <mxCell id="RgSMHik2Wsmm7Nfgr3Pd-54" value="" style="endArrow=none;dashed=1;html=1;dashPattern=1 3;strokeWidth=2;" parent="WIyWlLk6GJQsqaUBKTNV-1" edge="1">
          <mxGeometry width="50" height="50" relative="1" as="geometry">
            <mxPoint x="610" y="-80" as="sourcePoint" />
            <mxPoint x="610" y="-330" as="targetPoint" />
          </mxGeometry>
        </mxCell>
        <mxCell id="RgSMHik2Wsmm7Nfgr3Pd-55" value="" style="endArrow=none;dashed=1;html=1;dashPattern=1 3;strokeWidth=2;" parent="WIyWlLk6GJQsqaUBKTNV-1" edge="1">
          <mxGeometry width="50" height="50" relative="1" as="geometry">
            <mxPoint x="700" y="-50" as="sourcePoint" />
            <mxPoint x="230" y="-50" as="targetPoint" />
            <Array as="points">
              <mxPoint x="360" y="-50" />
            </Array>
          </mxGeometry>
        </mxCell>
        <mxCell id="RgSMHik2Wsmm7Nfgr3Pd-56" value="rodzaj" style="text;html=1;strokeColor=none;fillColor=none;align=center;verticalAlign=middle;whiteSpace=wrap;rounded=0;" parent="WIyWlLk6GJQsqaUBKTNV-1" vertex="1">
          <mxGeometry x="240" y="-70" width="40" height="20" as="geometry" />
        </mxCell>
        <mxCell id="RgSMHik2Wsmm7Nfgr3Pd-57" value="termin" style="text;html=1;strokeColor=none;fillColor=none;align=center;verticalAlign=middle;whiteSpace=wrap;rounded=0;" parent="WIyWlLk6GJQsqaUBKTNV-1" vertex="1">
          <mxGeometry x="570" y="-320" width="40" height="20" as="geometry" />
        </mxCell>
        <mxCell id="RgSMHik2Wsmm7Nfgr3Pd-58" value="podstawa płatności" style="text;html=1;strokeColor=none;fillColor=none;align=center;verticalAlign=middle;whiteSpace=wrap;rounded=0;" parent="WIyWlLk6GJQsqaUBKTNV-1" vertex="1">
          <mxGeometry x="420" y="-460" width="40" height="20" as="geometry" />
        </mxCell>
        <mxCell id="RgSMHik2Wsmm7Nfgr3Pd-59" value="klient&lt;br&gt;" style="text;html=1;strokeColor=none;fillColor=none;align=center;verticalAlign=middle;whiteSpace=wrap;rounded=0;" parent="WIyWlLk6GJQsqaUBKTNV-1" vertex="1">
          <mxGeometry x="210" y="-500" width="40" height="20" as="geometry" />
        </mxCell>
        <mxCell id="RgSMHik2Wsmm7Nfgr3Pd-60" value="diagram" style="shape=umlFrame;whiteSpace=wrap;html=1;" parent="WIyWlLk6GJQsqaUBKTNV-1" vertex="1">
          <mxGeometry x="-7" y="-590" width="855" height="810" as="geometry" />
        </mxCell>
      </root>
    </mxGraphModel>
  </diagram>
</mxfile>
